<?xml version="1.0" encoding="UTF-8"?>
<svg id="Layer_8" data-name="Layer 8" xmlns="http://www.w3.org/2000/svg" viewBox="0 0 100 100">
  <defs>
    <style>
      .cls-1 {
        fill: #e57bff;
      }

      .cls-2 {
        fill: #3e1284;
      }

      .cls-3 {
        fill: none;
        stroke: #0e52db;
        stroke-miterlimit: 10;
        stroke-width: 4px;
      }
    </style>
  </defs>
  <rect class="cls-2" x="-.2" y="0" width="100" height="100" rx="6.3" ry="6.3"/>
  <g>
    <path class="cls-1" d="M49.8,24.9c-10.3-.2-10,9.2-10,9.2-15.8-1.2-13.7,12.7-13.7,12.7-12.8-.4-13.6,12.3-13.6,12.3-9.3-.6-9.7,13.5-9.7,13.5h46.1l.6-47.8c.1,0,.2,0,.3,0Z"/>
    <path class="cls-1" d="M87.2,59.1s-.8-12.7-13.6-12.3c0,0,2.1-13.9-13.7-12.7,0,0,.3-9.5-10-9.2-.1,0-.2,0-.3,0l-.6,47.8h48s-.4-14.2-9.7-13.5Z"/>
  </g>
  <g>
    <path class="cls-3" d="M49.6,50.8l20.4,12.9c3.2-4.9,4.5-10.9,3.8-16.8l-24.2,3.1v.8Z"/>
    <polygon class="cls-3" points="49.5 48.8 48.6 50.1 48.6 50.1 49.6 50 49.5 48.8"/>
    <polygon class="cls-3" points="48.6 50.1 49.6 50.8 49.6 50 48.6 50.1"/>
    <polygon class="cls-3" points="48.6 50.1 48.6 50.1 48.6 50.1 48.6 50.1"/>
    <path class="cls-3" d="M48.6,50.1l-20.6-13c-3,4.8-4.3,10.5-3.6,16.2l24.1-3.1h0Z"/>
    <path class="cls-3" d="M49.5,48.8l-1.3-22.7,1.3,22.7,12.2-17.7-12.2,17.7v1.2c0,0,24.2-3.1,24.2-3.1-.4-2.7-1.2-5.4-2.5-8-6.2-12.2-21.2-17.1-33.4-10.9s-7.5,5.3-9.8,9l20.6,13,.9-1.3Z"/>
    <path class="cls-3" d="M48.6,50.1h0s-14.2,20.6-14.2,20.6l14.2-20.6-24.1,3.1c.3,2.8,1.2,5.6,2.5,8.3,4.7,9.2,14.3,14.2,24,13.5l-1.4-24.2-1-.6Z"/>
    <path class="cls-3" d="M70,63.7l-20.4-12.9,1.4,24.2c3.2-.2,6.4-1.1,9.4-2.6s7.3-5.1,9.6-8.7Z"/>
  </g>
</svg>