<?xml version="1.0" encoding="UTF-8"?>
<svg id="Layer_8" data-name="Layer 8" xmlns="http://www.w3.org/2000/svg" viewBox="0 0 100 100">
  <defs>
    <style>
      .cls-1 {
        fill: #e57bff;
      }

      .cls-2 {
        fill: #3e1284;
      }

      .cls-3 {
        fill: none;
        stroke: #0e52db;
        stroke-miterlimit: 10;
        stroke-width: 4px;
      }
    </style>
  </defs>
  <rect class="cls-2" x="-.05" y=".02" width="100" height="100" rx="6.28" ry="6.28"/>
  <g>
    <path class="cls-1" d="M49.95,24.88c-10.34-.25-10.03,9.24-10.03,9.24-15.84-1.17-13.7,12.72-13.7,12.72-12.84-.41-13.65,12.27-13.65,12.27-9.34-.61-9.7,13.54-9.7,13.54h46.11l.63-47.77c.11,0,.22,0,.33,0Z"/>
    <path class="cls-1" d="M87.33,59.1s-.81-12.67-13.65-12.27c0,0,2.15-13.89-13.7-12.72,0,0,.3-9.49-10.03-9.24-.11,0-.22,0-.33,0l-.63,47.77h48.05s-.36-14.15-9.7-13.54Z"/>
  </g>
  <g>
    <path class="cls-3" d="M49.95,50.02l20.76-12.27c-2.95-5.06-7.63-8.98-13.23-10.95l-8.22,22.92.7.31Z"/>
    <polygon class="cls-3" points="48.14 49.23 48.91 50.64 48.93 50.63 49.26 49.72 48.14 49.23"/>
    <polygon class="cls-3" points="48.93 50.63 49.95 50.02 49.26 49.72 48.93 50.63"/>
    <polygon class="cls-3" points="48.92 50.67 48.93 50.63 48.91 50.64 48.92 50.67"/>
    <path class="cls-3" d="M48.91,50.64l-20.96,12.39c2.91,4.82,7.4,8.57,12.76,10.53l8.21-22.9v-.02Z"/>
    <path class="cls-3" d="M48.14,49.23l-20.79-9.13,20.79,9.13-10.22-18.87,10.22,18.87,1.12.49,8.22-22.92c-2.58-.91-5.35-1.41-8.24-1.41-13.72,0-24.84,11.12-24.84,24.84,0,4.69,1.3,9.07,3.55,12.81l20.96-12.39-.77-1.42Z"/>
    <path class="cls-3" d="M48.93,50.63v.04s11.89,21.98,11.89,21.98l-11.9-21.98-8.21,22.9c2.66.97,5.53,1.5,8.53,1.5,10.33,0,19.19-6.31,22.94-15.29l-22.22-9.76-1.02.6Z"/>
    <path class="cls-3" d="M70.71,37.75l-20.76,12.27,22.22,9.76c1.23-2.94,1.91-6.17,1.91-9.55,0-4.55-1.23-8.81-3.37-12.48Z"/>
  </g>
</svg>