<?xml version="1.0" encoding="UTF-8"?>
<svg xmlns="http://www.w3.org/2000/svg" viewBox="0 0 100 100">
  <defs>
    <style>
      .cls-1 {
        fill: #8affa7;
      }

      .cls-2 {
        fill: #8aff8d;
      }

      .cls-3 {
        fill: #7cd877;
      }

      .cls-4 {
        fill: #eaff3e;
      }

      .cls-5 {
        fill: #2f2bb9;
      }

      .cls-6 {
        fill: #bfff3e;
      }

      .cls-7 {
        fill: #e3e548;
      }

      .cls-8 {
        fill: #3141b9;
      }

      .cls-9 {
        fill: #d2d3ff;
      }
    </style>
  </defs>
  <g id="Layer_6" data-name="Layer 6">
    <rect class="cls-5" x=".18" y="-.05" width="100" height="100" rx="6.28" ry="6.28"/>
    <path class="cls-1" d="M100.21,83.74h-51.87s6.1-15.25,24.2-15.25c0,0-.01-19.2,27.68-12.42v27.67Z"/>
    <path class="cls-1" d="M.28,58.33h56.08s.03-19.76-17.58-15.25c0,0-7.21-16.38-21.16-5.65,0,0-5.05-17.51-17.41-11.86"/>
    <circle class="cls-6" cx="74.97" cy="28.96" r="17.51"/>
    <ellipse class="cls-5" cx="84.96" cy="29.1" rx="14.15" ry="15.6"/>
  </g>
  <g id="Layer_12" data-name="Layer 12">
    <rect class="cls-8" x="-.21" y=".05" width="100" height="100" rx="6.28" ry="6.28"/>
    <circle class="cls-4" cx="74.62" cy="29.05" r="17.51"/>
    <ellipse class="cls-7" cx="79.12" cy="29.25" rx="16.39" ry="12.16" transform="translate(44.65 106.24) rotate(-86.17)"/>
    <path class="cls-3" d="M98.71,85.05h-54.9s6.46-15.72,25.61-15.72c0,0-.01-19.8,29.29-12.81v28.53Z"/>
    <path class="cls-3" d="M4,59.92h56.08s.03-19.76-17.58-15.25c0,0-7.21-16.38-21.16-5.65,0,0-5.05-17.51-17.41-11.86"/>
    <ellipse class="cls-8" cx="84.57" cy="29.19" rx="14.15" ry="15.6"/>
    <circle class="cls-7" cx="65.61" cy="17.16" r="1.15"/>
    <circle class="cls-7" cx="63.77" cy="27.5" r="1.15"/>
    <circle class="cls-7" cx="60.08" cy="22.41" r=".43"/>
    <circle class="cls-7" cx="69.03" cy="44.34" r=".43"/>
    <circle class="cls-7" cx="62.6" cy="34.27" r=".43"/>
    <circle class="cls-7" cx="67.07" cy="20.8" r=".43"/>
    <circle class="cls-7" cx="71.52" cy="13.59" r=".43"/>
    <circle class="cls-7" cx="58.74" cy="29.6" r=".43"/>
    <circle class="cls-7" cx="65.39" cy="39.4" r="1.15"/>
    <path class="cls-2" d="M-.11,59.92h56.08s.03-19.76-17.58-15.25c0,0-7.21-16.38-21.16-5.65,0,0-5.05-17.51-17.41-11.86"/>
    <path class="cls-2" d="M99.82,85.05h-51.87s6.1-15.72,24.2-15.72c0,0-.01-19.8,27.68-12.81v28.53Z"/>
    <polygon class="cls-9" points="12.56 9.75 11.44 9.6 12.11 10.51 11.05 10.13 11.52 11.15 10.56 10.56 10.81 11.66 9.99 10.89 10.01 12.01 9.37 11.08 9.15 12.19 8.72 11.15 8.27 12.18 8.07 11.07 7.42 12 7.45 10.87 6.62 11.63 6.88 10.54 5.91 11.11 6.4 10.09 5.33 10.46 6.02 9.56 4.9 9.69 5.76 8.96 4.63 8.86 5.63 8.32 4.55 7.99 5.63 7.67 4.65 7.12 5.77 7.03 4.92 6.28 6.04 6.43 5.37 5.53 6.43 5.91 5.96 4.88 6.92 5.47 6.67 4.37 7.49 5.15 7.48 4.02 8.11 4.95 8.33 3.85 8.76 4.89 9.21 3.85 9.41 4.96 10.07 4.04 10.04 5.17 10.86 4.4 10.6 5.5 11.57 4.92 11.08 5.94 12.15 5.58 11.46 6.47 12.58 6.34 11.72 7.07 12.85 7.18 11.86 7.71 12.93 8.05 11.85 8.37 12.83 8.92 11.71 9.01 12.56 9.75"/>
    <polygon class="cls-9" points="37.38 24.15 36.26 24 36.93 24.9 35.87 24.52 36.34 25.55 35.38 24.96 35.63 26.06 34.81 25.28 34.83 26.41 34.19 25.48 33.97 26.58 33.54 25.54 33.09 26.58 32.89 25.47 32.24 26.39 32.27 25.26 31.44 26.03 31.7 24.93 30.73 25.51 31.22 24.49 30.15 24.85 30.84 23.96 29.72 24.09 30.58 23.36 29.45 23.25 30.45 22.71 29.37 22.38 30.45 22.06 29.47 21.51 30.59 21.42 29.74 20.68 30.86 20.83 30.19 19.92 31.25 20.3 30.78 19.28 31.74 19.87 31.49 18.77 32.31 19.54 32.3 18.41 32.93 19.35 33.15 18.24 33.58 19.28 34.03 18.25 34.23 19.36 34.89 18.43 34.85 19.56 35.68 18.8 35.42 19.89 36.39 19.32 35.9 20.34 36.97 19.97 36.28 20.87 37.4 20.74 36.54 21.47 37.67 21.57 36.67 22.11 37.75 22.44 36.67 22.76 37.65 23.31 36.53 23.4 37.38 24.15"/>
    <polygon class="cls-9" points="56.42 8.37 55.3 8.22 55.98 9.13 54.91 8.75 55.39 9.77 54.42 9.18 54.67 10.28 53.86 9.51 53.87 10.63 53.23 9.7 53.01 10.81 52.58 9.77 52.13 10.8 51.93 9.69 51.28 10.62 51.31 9.49 50.48 10.25 50.75 9.16 49.78 9.73 50.26 8.71 49.19 9.08 49.88 8.18 48.76 8.31 49.62 7.58 48.5 7.48 49.49 6.94 48.41 6.61 49.49 6.29 48.51 5.74 49.64 5.65 48.79 4.9 49.91 5.05 49.23 4.15 50.29 4.53 49.82 3.5 50.78 4.09 50.54 2.99 51.35 3.77 51.34 2.64 51.98 3.57 52.2 2.47 52.63 3.51 53.07 2.47 53.28 3.58 53.93 2.66 53.9 3.79 54.73 3.02 54.46 4.12 55.43 3.54 54.95 4.56 56.01 4.2 55.33 5.09 56.45 4.96 55.59 5.69 56.71 5.8 55.72 6.33 56.8 6.67 55.71 6.99 56.7 7.54 55.57 7.63 56.42 8.37"/>
    <polygon class="cls-9" points="92.57 27.78 91.46 27.63 92.13 28.54 91.07 28.16 91.54 29.19 90.58 28.59 90.83 29.7 90.01 28.92 90.02 30.05 89.39 29.11 89.16 30.22 88.73 29.18 88.29 30.21 88.08 29.1 87.43 30.03 87.46 28.9 86.63 29.66 86.9 28.57 85.93 29.14 86.42 28.13 85.35 28.49 86.04 27.59 84.92 27.73 85.77 26.99 84.65 26.89 85.64 26.35 84.57 26.02 85.65 25.7 84.66 25.15 85.79 25.06 84.94 24.32 86.06 24.46 85.39 23.56 86.45 23.94 85.98 22.91 86.94 23.5 86.69 22.4 87.51 23.18 87.49 22.05 88.13 22.98 88.35 21.88 88.78 22.92 89.23 21.88 89.43 22.99 90.08 22.07 90.05 23.2 90.88 22.43 90.62 23.53 91.59 22.96 91.1 23.97 92.17 23.61 91.48 24.51 92.6 24.37 91.74 25.1 92.86 25.21 91.87 25.75 92.95 26.08 91.87 26.4 92.85 26.95 91.73 27.04 92.57 27.78"/>
    <polygon class="cls-9" points="39.49 74.83 38.38 74.68 39.05 75.59 37.99 75.21 38.46 76.24 37.5 75.64 37.75 76.74 36.93 75.97 36.94 77.1 36.31 76.16 36.08 77.27 35.65 76.23 35.21 77.26 35 76.15 34.35 77.08 34.38 75.95 33.55 76.71 33.82 75.62 32.85 76.19 33.34 75.18 32.27 75.54 32.96 74.64 31.84 74.78 32.69 74.04 31.57 73.94 32.56 73.4 31.49 73.07 32.57 72.75 31.58 72.2 32.71 72.11 31.86 71.37 32.98 71.51 32.31 70.61 33.37 70.99 32.9 69.96 33.86 70.55 33.61 69.45 34.43 70.23 34.41 69.1 35.05 70.03 35.27 68.93 35.7 69.97 36.15 68.93 36.35 70.04 37 69.12 36.97 70.25 37.8 69.48 37.54 70.58 38.51 70 38.02 71.02 39.09 70.66 38.4 71.55 39.52 71.42 38.66 72.15 39.78 72.26 38.79 72.8 39.87 73.13 38.79 73.45 39.77 74 38.65 74.09 39.49 74.83"/>
    <polygon class="cls-9" points="27.03 93.54 25.91 93.39 26.59 94.3 25.53 93.92 26 94.94 25.04 94.35 25.28 95.45 24.47 94.67 24.48 95.8 23.84 94.87 23.62 95.98 23.19 94.94 22.75 95.97 22.54 94.86 21.89 95.78 21.92 94.66 21.09 95.42 21.36 94.32 20.39 94.9 20.88 93.88 19.81 94.24 20.49 93.35 19.37 93.48 20.23 92.75 19.11 92.65 20.1 92.11 19.02 91.77 20.11 91.46 19.12 90.9 20.25 90.82 19.4 90.07 20.52 90.22 19.84 89.32 20.91 89.7 20.43 88.67 21.4 89.26 21.15 88.16 21.97 88.94 21.95 87.81 22.59 88.74 22.81 87.63 23.24 88.68 23.69 87.64 23.89 88.75 24.54 87.83 24.51 88.96 25.34 88.19 25.07 89.29 26.04 88.71 25.56 89.73 26.63 89.37 25.94 90.26 27.06 90.13 26.2 90.86 27.32 90.97 26.33 91.5 27.41 91.84 26.33 92.16 27.31 92.71 26.18 92.8 27.03 93.54"/>
    <polygon class="cls-9" points="12.56 75.51 11.44 75.36 12.11 76.27 11.05 75.89 11.52 76.92 10.56 76.32 10.81 77.43 9.99 76.65 10.01 77.78 9.37 76.84 9.15 77.95 8.72 76.91 8.27 77.94 8.07 76.83 7.42 77.76 7.45 76.63 6.62 77.39 6.88 76.3 5.91 76.87 6.4 75.86 5.33 76.22 6.02 75.32 4.9 75.46 5.76 74.72 4.63 74.62 5.63 74.08 4.55 73.75 5.63 73.43 4.65 72.88 5.77 72.79 4.92 72.05 6.04 72.19 5.37 71.29 6.43 71.67 5.96 70.64 6.92 71.23 6.67 70.13 7.49 70.91 7.48 69.78 8.11 70.71 8.33 69.61 8.76 70.65 9.21 69.61 9.41 70.72 10.07 69.8 10.04 70.93 10.86 70.16 10.6 71.26 11.57 70.69 11.08 71.7 12.15 71.34 11.46 72.24 12.58 72.1 11.72 72.83 12.85 72.94 11.86 73.48 12.93 73.81 11.85 74.13 12.83 74.68 11.71 74.77 12.56 75.51"/>
    <polygon class="cls-9" points="84.19 93.54 83.07 93.39 83.75 94.3 82.68 93.92 83.16 94.94 82.19 94.35 82.44 95.45 81.63 94.67 81.64 95.8 81 94.87 80.78 95.98 80.35 94.94 79.9 95.97 79.7 94.86 79.05 95.78 79.08 94.66 78.25 95.42 78.52 94.32 77.55 94.9 78.03 93.88 76.96 94.24 77.65 93.35 76.53 93.48 77.39 92.75 76.27 92.65 77.26 92.11 76.18 91.77 77.27 91.46 76.28 90.9 77.41 90.82 76.56 90.07 77.68 90.22 77 89.32 78.06 89.7 77.59 88.67 78.55 89.26 78.31 88.16 79.12 88.94 79.11 87.81 79.75 88.74 79.97 87.63 80.4 88.68 80.84 87.64 81.05 88.75 81.7 87.83 81.67 88.96 82.5 88.19 82.23 89.29 83.2 88.71 82.72 89.73 83.78 89.37 83.1 90.26 84.22 90.13 83.36 90.86 84.48 90.97 83.49 91.5 84.57 91.84 83.48 92.16 84.47 92.71 83.34 92.8 84.19 93.54"/>
  </g>
</svg>