<?xml version="1.0" encoding="UTF-8"?>
<svg id="Layer_12" data-name="Layer 12" xmlns="http://www.w3.org/2000/svg" viewBox="0 0 100 100">
  <defs>
    <style>
      .cls-1 {
        fill: #211e81;
      }

      .cls-2 {
        fill: #b7c730;
      }

      .cls-3 {
        fill: #95c730;
      }

      .cls-4 {
        fill: #a4a5c7;
      }

      .cls-5 {
        fill: #5ca058;
      }

      .cls-6 {
        fill: #acad36;
      }

      .cls-7 {
        fill: #6cc76e;
      }

      .cls-8 {
        fill: #222d81;
      }

      .cls-9 {
        fill: #6cc782;
      }
    </style>
  </defs>
  <path class="cls-9" d="M100.36,93.04h-57.66s6.78-16.95,26.9-16.95c0,0-.01-21.34,30.77-13.81v30.76Z"/>
  <path class="cls-9" d="M-10.73,64.8h62.34s.03-21.97-19.54-16.95c0,0-8.01-18.2-23.52-6.28,0,0-5.61-19.46-19.35-13.18"/>
  <circle class="cls-3" cx="72.3" cy="32.15" r="19.46"/>
  <ellipse class="cls-1" cx="83.4" cy="32.31" rx="15.73" ry="17.34"/>
  <rect class="cls-8" x="0" y=".01" width="99.88" height="99.88" rx="6.28" ry="6.28"/>
  <circle class="cls-2" cx="71.91" cy="32.26" r="19.46"/>
  <ellipse class="cls-6" cx="76.91" cy="32.47" rx="18.22" ry="13.52" transform="translate(39.37 107.04) rotate(-86.17)"/>
  <path class="cls-5" d="M98.69,94.51h-61.03s7.18-17.48,28.47-17.48c0,0-.02-22.01,32.56-14.24v31.71Z"/>
  <path class="cls-5" d="M-6.59,66.57h62.34s.03-21.97-19.54-16.95c0,0-8.01-18.2-23.52-6.28,0,0-5.61-19.46-19.35-13.18"/>
  <ellipse class="cls-8" cx="82.97" cy="32.41" rx="15.73" ry="17.34"/>
  <circle class="cls-6" cx="61.9" cy="19.03" r="1.27"/>
  <circle class="cls-6" cx="59.85" cy="30.53" r="1.27"/>
  <circle class="cls-6" cx="55.75" cy="24.87" r=".48"/>
  <circle class="cls-6" cx="65.69" cy="49.24" r=".48"/>
  <circle class="cls-6" cx="58.55" cy="38.05" r=".48"/>
  <circle class="cls-6" cx="63.51" cy="23.08" r=".48"/>
  <circle class="cls-6" cx="68.46" cy="15.07" r=".48"/>
  <circle class="cls-6" cx="54.26" cy="32.86" r=".48"/>
  <circle class="cls-6" cx="61.65" cy="43.76" r="1.27"/>
  <path class="cls-7" d="M-11.16,66.57h62.34s.03-21.97-19.54-16.95c0,0-8.01-18.2-23.52-6.28,0,0-5.61-19.46-19.35-13.18"/>
  <path class="cls-7" d="M99.93,94.51h-57.66s6.78-17.48,26.9-17.48c0,0-.01-22.01,30.77-14.24v31.71Z"/>
  <polygon class="cls-4" points="2.92 10.8 1.68 10.63 2.43 11.64 1.25 11.22 1.77 12.36 .7 11.7 .98 12.93 .07 12.06 .08 13.31 -.62 12.28 -.87 13.51 -1.35 12.35 -1.84 13.5 -2.07 12.27 -2.8 13.29 -2.76 12.04 -3.68 12.89 -3.39 11.67 -4.47 12.31 -3.92 11.18 -5.11 11.58 -4.35 10.59 -5.59 10.74 -4.64 9.92 -5.89 9.81 -4.78 9.21 -5.98 8.84 -4.78 8.48 -5.87 7.87 -4.62 7.77 -5.56 6.94 -4.32 7.11 -5.07 6.11 -3.89 6.53 -4.41 5.39 -3.35 6.04 -3.62 4.82 -2.71 5.68 -2.73 4.43 -2.02 5.46 -1.77 4.23 -1.3 5.39 -.8 4.24 -.57 5.48 .15 4.45 .12 5.71 1.04 4.85 .74 6.07 1.82 5.43 1.28 6.56 2.47 6.16 1.7 7.16 2.95 7.01 1.99 7.82 3.24 7.94 2.14 8.53 3.34 8.91 2.13 9.26 3.23 9.88 1.98 9.97 2.92 10.8"/>
  <polygon class="cls-4" points="30.51 26.8 29.27 26.63 30.02 27.64 28.83 27.22 29.36 28.36 28.29 27.7 28.57 28.92 27.66 28.06 27.67 29.31 26.97 28.28 26.72 29.51 26.24 28.35 25.75 29.5 25.52 28.27 24.79 29.29 24.83 28.04 23.91 28.89 24.2 27.67 23.12 28.31 23.67 27.18 22.48 27.58 23.24 26.59 22 26.74 22.95 25.92 21.7 25.81 22.81 25.21 21.61 24.84 22.81 24.48 21.72 23.87 22.97 23.77 22.03 22.94 23.27 23.11 22.52 22.1 23.7 22.53 23.18 21.39 24.24 22.04 23.97 20.82 24.88 21.68 24.86 20.43 25.57 21.46 25.82 20.23 26.29 21.39 26.79 20.24 27.02 21.48 27.74 20.45 27.71 21.71 28.63 20.85 28.33 22.07 29.41 21.43 28.87 22.56 30.06 22.16 29.29 23.16 30.54 23.01 29.58 23.82 30.83 23.94 29.73 24.53 30.93 24.91 29.72 25.26 30.82 25.87 29.57 25.97 30.51 26.8"/>
  <polygon class="cls-4" points="51.68 9.27 50.44 9.1 51.19 10.11 50 9.69 50.53 10.82 49.46 10.17 49.74 11.39 48.83 10.53 48.84 11.78 48.13 10.75 47.89 11.98 47.41 10.82 46.92 11.97 46.69 10.74 45.96 11.76 46 10.51 45.08 11.36 45.37 10.14 44.29 10.78 44.83 9.65 43.65 10.05 44.41 9.05 43.17 9.2 44.12 8.39 42.87 8.27 43.98 7.68 42.78 7.3 43.98 6.95 42.89 6.34 44.14 6.24 43.19 5.41 44.44 5.58 43.69 4.57 44.87 4.99 44.35 3.85 45.41 4.51 45.14 3.29 46.05 4.15 46.03 2.9 46.74 3.93 46.99 2.7 47.46 3.86 47.96 2.71 48.19 3.94 48.91 2.92 48.88 4.17 49.8 3.32 49.5 4.54 50.58 3.9 50.04 5.03 51.23 4.63 50.46 5.62 51.71 5.48 50.75 6.29 52 6.4 50.9 7 52.1 7.37 50.89 7.73 51.99 8.34 50.74 8.44 51.68 9.27"/>
  <polygon class="cls-4" points="91.87 30.84 90.63 30.68 91.38 31.68 90.19 31.26 90.72 32.4 89.65 31.75 89.93 32.97 89.02 32.1 89.03 33.36 88.32 32.32 88.08 33.55 87.6 32.39 87.1 33.55 86.88 32.31 86.15 33.34 86.19 32.08 85.27 32.93 85.56 31.71 84.48 32.36 85.02 31.22 83.84 31.63 84.6 30.63 83.36 30.78 84.31 29.97 83.06 29.85 84.16 29.25 82.97 28.88 84.17 28.53 83.08 27.91 84.33 27.82 83.38 26.99 84.63 27.15 83.88 26.15 85.06 26.57 84.53 25.43 85.6 26.09 85.33 24.86 86.24 25.73 86.22 24.47 86.93 25.51 87.17 24.28 87.65 25.44 88.15 24.29 88.37 25.52 89.1 24.49 89.06 25.75 89.99 24.9 89.69 26.12 90.77 25.48 90.23 26.61 91.42 26.21 90.65 27.2 91.9 27.05 90.94 27.87 92.19 27.98 91.09 28.58 92.29 28.95 91.08 29.31 92.18 29.92 90.93 30.02 91.87 30.84"/>
  <polygon class="cls-4" points="32.86 83.14 31.62 82.98 32.37 83.98 31.19 83.56 31.71 84.7 30.64 84.05 30.92 85.27 30.01 84.41 30.03 85.66 29.32 84.62 29.07 85.85 28.6 84.7 28.1 85.85 27.87 84.61 27.15 85.64 27.18 84.38 26.26 85.23 26.56 84.02 25.48 84.66 26.02 83.52 24.83 83.93 25.6 82.93 24.35 83.08 25.31 82.27 24.06 82.15 25.16 81.55 23.96 81.18 25.17 80.83 24.07 80.21 25.32 80.12 24.38 79.29 25.62 79.46 24.87 78.45 26.05 78.87 25.53 77.73 26.6 78.39 26.32 77.16 27.23 78.03 27.22 76.77 27.92 77.81 28.17 76.58 28.65 77.74 29.14 76.59 29.37 77.82 30.1 76.8 30.06 78.05 30.98 77.2 30.69 78.42 31.77 77.78 31.22 78.91 32.41 78.51 31.65 79.5 32.89 79.35 31.94 80.17 33.19 80.28 32.08 80.88 33.28 81.25 32.08 81.61 33.17 82.22 31.92 82.32 32.86 83.14"/>
  <polygon class="cls-4" points="19.01 103.94 17.77 103.77 18.52 104.78 17.34 104.36 17.86 105.5 16.79 104.84 17.07 106.07 16.16 105.2 16.18 106.45 15.47 105.42 15.22 106.65 14.74 105.49 14.25 106.64 14.02 105.41 13.3 106.43 13.33 105.18 12.41 106.03 12.7 104.81 11.62 105.45 12.17 104.32 10.98 104.72 11.74 103.73 10.5 103.88 11.45 103.06 10.2 102.95 11.31 102.35 10.11 101.98 11.31 101.62 10.22 101.01 11.47 100.91 10.53 100.09 11.77 100.25 11.02 99.25 12.2 99.67 11.68 98.53 12.75 99.18 12.47 97.96 13.38 98.82 13.36 97.57 14.07 98.6 14.32 97.37 14.8 98.53 15.29 97.38 15.52 98.62 16.24 97.59 16.21 98.85 17.13 97.99 16.83 99.21 17.91 98.57 17.37 99.7 18.56 99.3 17.79 100.3 19.04 100.15 18.08 100.96 19.33 101.08 18.23 101.68 19.43 102.05 18.23 102.4 19.32 103.02 18.07 103.11 19.01 103.94"/>
  <polygon class="cls-4" points="2.92 83.9 1.68 83.73 2.43 84.74 1.25 84.32 1.77 85.46 .7 84.8 .98 86.03 .07 85.16 .08 86.42 -.62 85.38 -.87 86.61 -1.35 85.45 -1.84 86.6 -2.07 85.37 -2.8 86.39 -2.76 85.14 -3.68 85.99 -3.39 84.77 -4.47 85.41 -3.92 84.28 -5.11 84.68 -4.35 83.69 -5.59 83.84 -4.64 83.02 -5.89 82.91 -4.78 82.31 -5.98 81.94 -4.78 81.58 -5.87 80.97 -4.62 80.87 -5.56 80.05 -4.32 80.21 -5.07 79.21 -3.89 79.63 -4.41 78.49 -3.35 79.14 -3.62 77.92 -2.71 78.79 -2.73 77.53 -2.02 78.57 -1.77 77.34 -1.3 78.5 -.8 77.34 -.57 78.58 .15 77.55 .12 78.81 1.04 77.96 .74 79.17 1.82 78.53 1.28 79.67 2.47 79.26 1.7 80.26 2.95 80.11 1.99 80.92 3.24 81.04 2.14 81.64 3.34 82.01 2.13 82.36 3.23 82.98 1.98 83.07 2.92 83.9"/>
  <polygon class="cls-4" points="82.55 103.94 81.31 103.77 82.06 104.78 80.87 104.36 81.4 105.5 80.33 104.84 80.61 106.07 79.7 105.2 79.71 106.45 79 105.42 78.76 106.65 78.28 105.49 77.78 106.64 77.56 105.41 76.83 106.43 76.87 105.18 75.95 106.03 76.24 104.81 75.16 105.45 75.7 104.32 74.52 104.72 75.28 103.73 74.04 103.88 74.99 103.06 73.74 102.95 74.85 102.35 73.65 101.98 74.85 101.62 73.76 101.01 75.01 100.91 74.06 100.09 75.31 100.25 74.56 99.25 75.74 99.67 75.22 98.53 76.28 99.18 76.01 97.96 76.92 98.82 76.9 97.57 77.61 98.6 77.85 97.37 78.33 98.53 78.83 97.38 79.06 98.62 79.78 97.59 79.75 98.85 80.67 97.99 80.37 99.21 81.45 98.57 80.91 99.7 82.1 99.3 81.33 100.3 82.58 100.15 81.62 100.96 82.87 101.08 81.77 101.68 82.97 102.05 81.76 102.4 82.86 103.02 81.61 103.11 82.55 103.94"/>
</svg>