<?xml version="1.0" encoding="UTF-8"?>
<svg id="Layer_15" data-name="Layer 15" xmlns="http://www.w3.org/2000/svg" viewBox="0 0 100 100">
  <defs>
    <style>
      .cls-1 {
        fill: #525285;
      }

      .cls-2 {
        fill: #efaa56;
      }

      .cls-3 {
        fill: #87a08d;
      }

      .cls-4 {
        fill: #e1e1e1;
      }
    </style>
  </defs>
  <rect class="cls-1" x="0" width="100" height="100" rx="6.28" ry="6.28"/>
  <path class="cls-4" d="M88.98,27.82s-51.91,5.77-76.86,0c0,0,4.11,15.19,0,45.1,0,0,51.91-5.77,76.86,0,0,0-4.11-15.19,0-45.1Z"/>
  <path class="cls-3" d="M63.23,47.62c7.97-5.17,13.39-15.31,13.39-26.98,0-3.88-.6-7.58-1.7-11-.42.39-.88.76-1.35,1.12-6.51-1.24-38.21-6.86-45.5-.49-.22-.18-.44-.36-.64-.54-.11.33-.21.67-.3,1.01-.88,3.1-1.36,6.43-1.36,9.9,0,11.67,5.42,21.81,13.39,26.98-7.97,5.17-13.39,15.31-13.39,26.98,0,3.88.6,7.58,1.7,11h.06c1.17.35,21.33,6.25,47.36-.09h.08c1.07-3.39,1.67-7.06,1.67-10.91,0-11.67-5.42-21.81-13.39-26.98Z"/>
  <ellipse class="cls-2" cx="51.23" cy="9.79" rx="23.72" ry="3.05"/>
</svg>