<?xml version="1.0" encoding="UTF-8"?>
<svg id="Layer_8" data-name="Layer 8" xmlns="http://www.w3.org/2000/svg" viewBox="0 0 100 100">
  <defs>
    <style>
      .cls-1 {
        fill: #e57bff;
      }

      .cls-2 {
        fill: #3e1284;
      }

      .cls-3 {
        fill: none;
        stroke: #0e52db;
        stroke-miterlimit: 10;
        stroke-width: 4px;
      }
    </style>
  </defs>
  <rect class="cls-2" x="0" y=".02" width="100" height="100" rx="6.28" ry="6.28"/>
  <g>
    <path class="cls-1" d="M50,24.88c-10.34-.25-10.03,9.24-10.03,9.24-15.84-1.17-13.7,12.72-13.7,12.72-12.84-.41-13.65,12.27-13.65,12.27-9.34-.61-9.7,13.54-9.7,13.54h46.11l.63-47.77c.11,0,.22,0,.33,0Z"/>
    <path class="cls-1" d="M87.38,59.1s-.81-12.67-13.65-12.27c0,0,2.15-13.89-13.7-12.72,0,0,.3-9.49-10.03-9.24-.11,0-.22,0-.33,0l-.63,47.77h48.05s-.36-14.15-9.7-13.54Z"/>
  </g>
  <g>
    <path class="cls-3" d="M49.98,50.5l23.93,2.93c.75-5.81-.57-11.77-3.81-16.75l-20.49,13.15.36.67Z"/>
    <polygon class="cls-3" points="49.02 48.76 48.77 50.36 48.8 50.36 49.61 49.84 49.02 48.76"/>
    <polygon class="cls-3" points="48.8 50.36 49.98 50.5 49.61 49.84 48.8 50.36"/>
    <polygon class="cls-3" points="48.76 50.38 48.8 50.36 48.77 50.36 48.76 50.38"/>
    <path class="cls-3" d="M48.77,50.36l-24.17-2.96c-.64,5.59.64,11.31,3.69,16.13l20.47-13.14v-.03Z"/>
    <path class="cls-3" d="M49.02,48.76l-10.91-19.92,10.91,19.92,3.41-21.19-3.41,21.19.59,1.07,20.49-13.15c-1.49-2.29-3.38-4.38-5.67-6.14-10.87-8.37-26.47-6.34-34.84,4.53-2.86,3.71-4.5,7.98-4.99,12.32l24.17,2.96.26-1.59Z"/>
    <path class="cls-3" d="M48.8,50.36l-.04.02-3.97,24.68,3.97-24.68-20.47,13.14c1.51,2.39,3.47,4.56,5.84,6.39,8.19,6.3,19.06,6.7,27.5,1.87l-11.66-21.28-1.18-.14Z"/>
    <path class="cls-3" d="M73.91,53.44l-23.93-2.93,11.66,21.28c2.76-1.58,5.27-3.72,7.33-6.41,2.78-3.61,4.4-7.73,4.94-11.94Z"/>
  </g>
</svg>