<?xml version="1.0" encoding="UTF-8"?>
<svg id="Layer_12" data-name="Layer 12" xmlns="http://www.w3.org/2000/svg" viewBox="0 0 100 100">
  <defs>
    <style>
      .cls-1 {
        fill: #211e81;
      }

      .cls-2 {
        fill: #b7c730;
      }

      .cls-3 {
        fill: #95c730;
      }

      .cls-4 {
        fill: #a4a5c7;
      }

      .cls-5 {
        fill: #acad36;
      }

      .cls-6 {
        fill: #222d81;
      }
    </style>
  </defs>
  <circle class="cls-3" cx="59.71" cy="47.64" r="37.65"/>
  <ellipse class="cls-1" cx="81.18" cy="47.95" rx="30.42" ry="33.55"/>
  <rect class="cls-6" x=".06" y=".01" width="99.88" height="99.88" rx="6.28" ry="6.28"/>
  <circle class="cls-2" cx="58.95" cy="47.84" r="37.65"/>
  <ellipse class="cls-5" cx="68.63" cy="48.26" rx="35.26" ry="26.15" transform="translate(15.88 113.51) rotate(-86.17)"/>
  <ellipse class="cls-6" cx="80.34" cy="48.15" rx="30.42" ry="33.55"/>
  <circle class="cls-5" cx="39.58" cy="22.26" r="2.47"/>
  <circle class="cls-5" cx="35.62" cy="44.51" r="2.47"/>
  <circle class="cls-5" cx="27.69" cy="33.56" r=".93"/>
  <circle class="cls-5" cx="46.93" cy="80.71" r=".93"/>
  <circle class="cls-5" cx="33.11" cy="59.05" r=".93"/>
  <circle class="cls-5" cx="42.71" cy="30.09" r=".93"/>
  <circle class="cls-5" cx="52.29" cy="14.6" r=".93"/>
  <circle class="cls-5" cx="24.8" cy="49.01" r=".93"/>
  <circle class="cls-5" cx="39.1" cy="70.09" r="2.47"/>
  <polygon class="cls-4" points="2.91 10.35 1.67 10.18 2.42 11.19 1.24 10.77 1.76 11.91 .69 11.25 .97 12.47 .06 11.61 .08 12.86 -.63 11.83 -.88 13.06 -1.36 11.9 -1.85 13.05 -2.08 11.82 -2.8 12.84 -2.77 11.59 -3.69 12.44 -3.4 11.22 -4.48 11.86 -3.93 10.73 -5.12 11.13 -4.36 10.14 -5.6 10.28 -4.65 9.47 -5.9 9.35 -4.79 8.76 -5.99 8.39 -4.79 8.03 -5.88 7.42 -4.63 7.32 -5.57 6.49 -4.33 6.66 -5.08 5.65 -3.9 6.07 -4.42 4.93 -3.35 5.59 -3.63 4.37 -2.72 5.23 -2.74 3.98 -2.03 5.01 -1.78 3.78 -1.3 4.94 -.81 3.79 -.58 5.02 .14 4 .11 5.25 1.03 4.4 .73 5.62 1.81 4.98 1.27 6.11 2.46 5.71 1.69 6.7 2.94 6.56 1.98 7.37 3.23 7.49 2.13 8.08 3.33 8.46 2.13 8.81 3.22 9.42 1.97 9.52 2.91 10.35"/>
  <polygon class="cls-4" points="6.63 43.32 5.39 43.15 6.14 44.16 4.96 43.74 5.48 44.87 4.41 44.22 4.69 45.44 3.78 44.58 3.8 45.83 3.09 44.8 2.84 46.03 2.36 44.87 1.87 46.02 1.64 44.79 .92 45.81 .95 44.56 .03 45.41 .32 44.19 -.75 44.83 -.21 43.7 -1.4 44.1 -.64 43.11 -1.88 43.25 -.93 42.44 -2.18 42.32 -1.07 41.73 -2.27 41.35 -1.07 41 -2.16 40.39 -.91 40.29 -1.85 39.46 -.61 39.63 -1.36 38.62 -.18 39.04 -.7 37.9 .37 38.56 .09 37.34 1 38.2 .98 36.95 1.69 37.98 1.94 36.75 2.42 37.91 2.91 36.76 3.14 37.99 3.86 36.97 3.83 38.22 4.75 37.37 4.46 38.59 5.53 37.95 4.99 39.08 6.18 38.68 5.42 39.67 6.66 39.53 5.71 40.34 6.95 40.45 5.85 41.05 7.05 41.42 5.85 41.78 6.94 42.39 5.69 42.49 6.63 43.32"/>
  <polygon class="cls-4" points="92.34 2.03 91.09 1.87 91.84 2.87 90.66 2.45 91.19 3.59 90.12 2.93 90.39 4.16 89.48 3.29 89.5 4.55 88.79 3.51 88.55 4.74 88.07 3.58 87.57 4.73 87.34 3.5 86.62 4.52 86.65 3.27 85.73 4.12 86.03 2.9 84.95 3.54 85.49 2.41 84.3 2.81 85.07 1.82 83.82 1.97 84.78 1.15 83.53 1.04 84.63 .44 83.43 .07 84.64 -.29 83.54 -.9 84.79 -1 83.85 -1.82 85.09 -1.66 84.34 -2.66 85.53 -2.24 85 -3.38 86.07 -2.73 85.79 -3.95 86.7 -3.08 86.69 -4.34 87.4 -3.3 87.64 -4.53 88.12 -3.37 88.62 -4.53 88.84 -3.29 89.57 -4.32 89.53 -3.06 90.45 -3.91 90.16 -2.69 91.24 -3.34 90.7 -2.2 91.88 -2.61 91.12 -1.61 92.36 -1.76 91.41 -.95 92.66 -.83 91.56 -.23 92.75 .14 91.55 .49 92.64 1.11 91.39 1.2 92.34 2.03"/>
  <polygon class="cls-4" points="88.93 93.73 87.69 93.57 88.44 94.57 87.25 94.15 87.78 95.29 86.71 94.64 86.99 95.86 86.08 94.99 86.09 96.25 85.38 95.21 85.14 96.44 84.66 95.28 84.16 96.44 83.94 95.2 83.21 96.23 83.25 94.97 82.33 95.82 82.62 94.6 81.54 95.25 82.08 94.11 80.9 94.52 81.66 93.52 80.42 93.67 81.37 92.86 80.12 92.74 81.22 92.14 80.03 91.77 81.23 91.42 80.14 90.8 81.39 90.71 80.44 89.88 81.69 90.04 80.94 89.04 82.12 89.46 81.59 88.32 82.66 88.98 82.39 87.75 83.3 88.62 83.28 87.36 83.99 88.4 84.23 87.17 84.71 88.33 85.21 87.18 85.44 88.41 86.16 87.39 86.13 88.64 87.05 87.79 86.75 89.01 87.83 88.37 87.29 89.5 88.48 89.1 87.71 90.09 88.96 89.94 88 90.76 89.25 90.87 88.15 91.47 89.35 91.84 88.14 92.2 89.24 92.81 87.99 92.91 88.93 93.73"/>
  <polygon class="cls-4" points="13.08 88.07 10.34 87.7 11.99 89.91 9.39 88.99 10.55 91.49 8.2 90.05 8.81 92.74 6.81 90.84 6.84 93.6 5.29 91.32 4.75 94.02 3.69 91.48 2.6 94.01 2.11 91.3 .51 93.55 .59 90.79 -1.44 92.66 -.79 89.98 -3.16 91.39 -1.97 88.9 -4.58 89.79 -2.9 87.6 -5.64 87.93 -3.54 86.14 -6.28 85.88 -3.86 84.57 -6.49 83.75 -3.85 82.97 -6.25 81.63 -3.5 81.41 -5.57 79.59 -2.84 79.96 -4.49 77.75 -1.89 78.67 -3.04 76.17 -.7 77.61 -1.3 74.92 .69 76.82 .66 74.07 2.22 76.34 2.76 73.64 3.81 76.18 4.9 73.65 5.4 76.36 6.99 74.11 6.91 76.87 8.94 75 8.29 77.68 10.66 76.27 9.47 78.76 12.08 77.87 10.4 80.06 13.14 79.73 11.04 81.52 13.79 81.78 11.36 83.09 13.99 83.91 11.35 84.69 13.75 86.04 11.01 86.25 13.08 88.07"/>
  <polygon class="cls-4" points="110.95 43.07 107.71 42.64 109.66 45.26 106.58 44.16 107.95 47.13 105.16 45.42 105.88 48.61 103.52 46.35 103.56 49.62 101.71 46.93 101.07 50.13 99.83 47.11 98.54 50.11 97.94 46.9 96.06 49.56 96.15 46.3 93.75 48.51 94.51 45.34 91.71 47.01 93.12 44.06 90.02 45.11 92.01 42.52 88.77 42.9 91.26 40.78 88 40.48 90.88 38.93 87.76 37.96 90.89 37.03 88.04 35.44 91.3 35.18 88.84 33.03 92.08 33.46 90.13 30.84 93.21 31.94 91.84 28.97 94.62 30.68 93.91 27.49 96.27 29.74 96.23 26.48 98.08 29.17 98.72 25.97 99.96 28.99 101.25 25.99 101.85 29.2 103.73 26.53 103.64 29.8 106.04 27.58 105.28 30.76 108.08 29.09 106.67 32.04 109.77 30.99 107.78 33.58 111.02 33.2 108.53 35.31 111.79 35.61 108.91 37.17 112.03 38.14 108.9 39.06 111.75 40.66 108.49 40.91 110.95 43.07"/>
</svg>